<svg width="80" height="12" viewBox="0 0 80 12" fill="none" xmlns="http://www.w3.org/2000/svg">
<path d="M0.210227 6.93182V6.25L5.69886 3.45455V4.54545L1.48864 6.57386L1.52273 6.50568V6.67614L1.48864 6.60795L5.69886 8.63636V9.72727L0.210227 6.93182ZM10.9158 0.863636L8.10334 11.3125H7.18288L9.99538 0.863636H10.9158ZM72.8494 0.863636L70.0369 11.3125H69.1165L71.929 0.863636H72.8494ZM79.82 6.93182L74.3313 9.72727V8.63636L78.5415 6.60795L78.5075 6.67614V6.50568L78.5415 6.57386L74.3313 4.54545V3.45455L79.82 6.25V6.93182Z" fill="#33FFA9"/>
<path d="M16.2793 7.79102L16.9531 10H18.0312L15.3242 1.46875H14.416L11.6621 10H12.7461L13.4316 7.79102H16.2793ZM13.7246 6.84766L14.8672 3.14453L15.9922 6.84766H13.7246ZM23.627 8.31836C23.627 8.41992 23.6074 8.51562 23.5684 8.60547C23.5293 8.69531 23.4727 8.77734 23.3984 8.85156C23.2773 8.97266 23.1094 9.06836 22.8945 9.13867C22.6797 9.20508 22.4277 9.23828 22.1387 9.23828C21.9551 9.23828 21.7695 9.21875 21.582 9.17969C21.3945 9.14062 21.2246 9.07422 21.0723 8.98047C20.916 8.88672 20.7852 8.76367 20.6797 8.61133C20.5781 8.45898 20.5195 8.27148 20.5039 8.04883H19.4199C19.4199 8.31836 19.4805 8.57812 19.6016 8.82812C19.7266 9.07812 19.9062 9.29688 20.1406 9.48438C20.3711 9.67578 20.6543 9.83008 20.9902 9.94727C21.3262 10.0605 21.709 10.1172 22.1387 10.1172C22.5137 10.1172 22.8594 10.0723 23.1758 9.98242C23.4922 9.89258 23.7637 9.76562 23.9902 9.60156C24.2168 9.4375 24.3926 9.24023 24.5176 9.00977C24.6465 8.7793 24.7109 8.52344 24.7109 8.24219C24.7109 7.98047 24.6543 7.75 24.541 7.55078C24.4316 7.35156 24.2715 7.17578 24.0605 7.02344C23.8496 6.875 23.5898 6.74805 23.2812 6.64258C22.9727 6.5332 22.623 6.4375 22.2324 6.35547C21.9355 6.29688 21.6895 6.23633 21.4941 6.17383C21.3027 6.11133 21.1504 6.04102 21.0371 5.96289C20.9199 5.88477 20.8379 5.79688 20.791 5.69922C20.7441 5.60156 20.7207 5.49023 20.7207 5.36523C20.7207 5.24414 20.75 5.12695 20.8086 5.01367C20.8672 4.90039 20.9551 4.80078 21.0723 4.71484C21.1855 4.62891 21.3281 4.56055 21.5 4.50977C21.6758 4.45898 21.8789 4.43359 22.1094 4.43359C22.332 4.43359 22.5312 4.46484 22.707 4.52734C22.8867 4.58984 23.0391 4.67188 23.1641 4.77344C23.2891 4.875 23.3867 4.99219 23.457 5.125C23.5273 5.25391 23.5625 5.38672 23.5625 5.52344H24.6465C24.6465 5.24609 24.5859 4.98828 24.4648 4.75C24.3477 4.50781 24.1797 4.29688 23.9609 4.11719C23.7422 3.9375 23.4766 3.79688 23.1641 3.69531C22.8516 3.59375 22.5 3.54297 22.1094 3.54297C21.7461 3.54297 21.4121 3.5918 21.1074 3.68945C20.8066 3.78711 20.5469 3.91992 20.3281 4.08789C20.1094 4.25586 19.9395 4.45312 19.8184 4.67969C19.6973 4.90234 19.6367 5.14258 19.6367 5.40039C19.6367 5.66211 19.6953 5.89258 19.8125 6.0918C19.9297 6.28711 20.0957 6.45703 20.3105 6.60156C20.5215 6.75 20.7754 6.87695 21.0723 6.98242C21.373 7.08789 21.7051 7.17773 22.0684 7.25195C22.3652 7.31055 22.6133 7.37695 22.8125 7.45117C23.0117 7.52148 23.1719 7.59961 23.293 7.68555C23.4141 7.77148 23.5 7.86719 23.5508 7.97266C23.6016 8.07422 23.627 8.18945 23.627 8.31836ZM30.7871 10H31.918V9.90625C31.8477 9.73047 31.793 9.52539 31.7539 9.29102C31.7148 9.05273 31.6953 8.82812 31.6953 8.61719V5.66992C31.6953 5.31445 31.6309 5.00391 31.502 4.73828C31.373 4.47266 31.1973 4.25 30.9746 4.07031C30.748 3.89453 30.4805 3.76367 30.1719 3.67773C29.8633 3.58789 29.5293 3.54297 29.1699 3.54297C28.7754 3.54297 28.4219 3.59766 28.1094 3.70703C27.8008 3.81641 27.5391 3.95898 27.3242 4.13477C27.1055 4.31445 26.9375 4.51562 26.8203 4.73828C26.707 4.96094 26.6484 5.1875 26.6445 5.41797H27.7344C27.7344 5.28516 27.7656 5.1582 27.8281 5.03711C27.8945 4.91211 27.9863 4.80469 28.1035 4.71484C28.2207 4.625 28.3633 4.55273 28.5312 4.49805C28.7031 4.44336 28.8965 4.41602 29.1113 4.41602C29.3418 4.41602 29.5488 4.44531 29.7324 4.50391C29.9199 4.5625 30.0781 4.64453 30.207 4.75C30.3359 4.85938 30.4355 4.99023 30.5059 5.14258C30.5762 5.29492 30.6113 5.4668 30.6113 5.6582V6.15625H29.4277C28.9863 6.15625 28.5859 6.19922 28.2266 6.28516C27.8711 6.37109 27.5664 6.5 27.3125 6.67188C27.0586 6.84766 26.8613 7.06641 26.7207 7.32812C26.584 7.58984 26.5156 7.89453 26.5156 8.24219C26.5156 8.50781 26.5664 8.75586 26.668 8.98633C26.7734 9.21289 26.9219 9.4082 27.1133 9.57227C27.3008 9.74023 27.5293 9.87305 27.7988 9.9707C28.0723 10.0684 28.377 10.1172 28.7129 10.1172C28.9199 10.1172 29.1152 10.0957 29.2988 10.0527C29.4824 10.0098 29.6562 9.95117 29.8203 9.87695C29.9805 9.80273 30.127 9.7168 30.2598 9.61914C30.3965 9.52148 30.5195 9.41797 30.6289 9.30859C30.6406 9.44141 30.6582 9.57031 30.6816 9.69531C30.709 9.81641 30.7441 9.91797 30.7871 10ZM28.8711 9.17383C28.6602 9.17383 28.4746 9.14648 28.3145 9.0918C28.1543 9.03711 28.0215 8.96094 27.916 8.86328C27.8105 8.76953 27.7305 8.65625 27.6758 8.52344C27.625 8.39062 27.5996 8.24609 27.5996 8.08984C27.5996 7.92578 27.6289 7.7793 27.6875 7.65039C27.75 7.52148 27.8398 7.41016 27.957 7.31641C28.1211 7.18359 28.3418 7.08594 28.6191 7.02344C28.9004 6.95703 29.2285 6.92383 29.6035 6.92383H30.6113V8.20703C30.5488 8.33203 30.4629 8.45312 30.3535 8.57031C30.2441 8.68359 30.1152 8.78516 29.9668 8.875C29.8145 8.96484 29.6465 9.03711 29.4629 9.0918C29.2793 9.14648 29.082 9.17383 28.8711 9.17383ZM33.8281 10H34.9121V5.45312C34.9863 5.31641 35.0723 5.19141 35.1699 5.07812C35.2715 4.96484 35.3809 4.86523 35.498 4.7793C35.6426 4.68164 35.8008 4.60547 35.9727 4.55078C36.1445 4.49219 36.3301 4.46289 36.5293 4.46289C36.7598 4.46289 36.9629 4.49023 37.1387 4.54492C37.3184 4.59961 37.4707 4.6875 37.5957 4.80859C37.7168 4.92969 37.8086 5.08789 37.8711 5.2832C37.9336 5.47852 37.9648 5.7168 37.9648 5.99805V10H39.0488V5.97461C39.0488 5.55273 38.9961 5.18945 38.8906 4.88477C38.7891 4.57617 38.6426 4.32227 38.4512 4.12305C38.2598 3.92383 38.0273 3.77734 37.7539 3.68359C37.4844 3.58984 37.1836 3.54297 36.8516 3.54297C36.6055 3.54688 36.3711 3.58398 36.1484 3.6543C35.9297 3.7207 35.7266 3.81641 35.5391 3.94141C35.4141 4.02344 35.2949 4.12109 35.1816 4.23438C35.0723 4.34375 34.9707 4.46484 34.877 4.59766L34.8008 3.66016H33.8281V10ZM40.7305 6.77148V6.90039C40.7305 7.35742 40.7969 7.78125 40.9297 8.17188C41.0625 8.5625 41.2539 8.90234 41.5039 9.19141C41.75 9.48047 42.0508 9.70703 42.4062 9.87109C42.7656 10.0352 43.1699 10.1172 43.6191 10.1172C44.0645 10.1172 44.4648 10.0352 44.8203 9.87109C45.1758 9.70703 45.4785 9.48047 45.7285 9.19141C45.9746 8.90234 46.1641 8.5625 46.2969 8.17188C46.4297 7.78125 46.4961 7.35742 46.4961 6.90039V6.77148C46.4961 6.31445 46.4297 5.89062 46.2969 5.5C46.1641 5.10547 45.9746 4.76367 45.7285 4.47461C45.4785 4.18555 45.1738 3.95898 44.8145 3.79492C44.459 3.62695 44.0566 3.54297 43.6074 3.54297C43.1621 3.54297 42.7617 3.62695 42.4062 3.79492C42.0508 3.95898 41.75 4.18555 41.5039 4.47461C41.2539 4.76367 41.0625 5.10547 40.9297 5.5C40.7969 5.89062 40.7305 6.31445 40.7305 6.77148ZM41.8145 6.90039V6.77148C41.8145 6.46289 41.8516 6.16797 41.9258 5.88672C42 5.60156 42.1133 5.35156 42.2656 5.13672C42.4141 4.92188 42.5996 4.75195 42.8223 4.62695C43.0449 4.49805 43.3066 4.43359 43.6074 4.43359C43.9082 4.43359 44.1699 4.49805 44.3926 4.62695C44.6191 4.75195 44.8086 4.92188 44.9609 5.13672C45.1094 5.35156 45.2207 5.60156 45.2949 5.88672C45.373 6.16797 45.4121 6.46289 45.4121 6.77148V6.90039C45.4121 7.21289 45.375 7.51172 45.3008 7.79688C45.2266 8.07812 45.1152 8.32617 44.9668 8.54102C44.8145 8.75586 44.625 8.92578 44.3984 9.05078C44.1758 9.17578 43.916 9.23828 43.6191 9.23828C43.3184 9.23828 43.0547 9.17578 42.8281 9.05078C42.6016 8.92578 42.4141 8.75586 42.2656 8.54102C42.1133 8.32617 42 8.07812 41.9258 7.79688C41.8516 7.51172 41.8145 7.21289 41.8145 6.90039ZM50.4043 10H51.2305L53.8145 3.66016H52.707L50.9316 8.44141L50.8262 8.83398L50.7266 8.44141L48.9102 3.66016H47.7969L50.4043 10ZM66.7285 7.79102L67.4023 10H68.4805L65.7734 1.46875H64.8652L62.1113 10H63.1953L63.8809 7.79102H66.7285ZM64.1738 6.84766L65.3164 3.14453L66.4414 6.84766H64.1738Z" fill="white"/>
</svg>
